<svg xmlns="http://www.w3.org/2000/svg" width="32" height="32" version="1" id="aperture">
  <path fill-rule="evenodd" d="M16 0C7.176 0 0 7.176 0 16s7.176 16 16 16 16-7.176 16-16S24.824 0 16 0zm0 6c.763 0 1.528.152 2.291.305L9.436 11.42V8.443C11.268 6.917 13.557 6 16 6zm3.283.611c2.977.993 5.266 3.435 6.182 6.412L16.84 8.061l2.443-1.45zM16.076 8.52l6.488 3.664v7.556L16 23.48l-6.488-3.664v-7.404l6.564-3.892zm-7.328.687V19.36l-2.443-1.452A7.69 7.69 0 0 1 6.076 16c0-2.595.993-5.037 2.672-6.793zm14.504 3.357 2.443 1.375c.153.611.229 1.298.229 1.985 0 2.672-.993 5.037-2.672 6.793V12.564zM6.459 18.977l8.625 4.962-2.443 1.45c-2.977-1.069-5.266-3.435-6.182-6.412zm16.105 1.603h.077v2.977C20.809 25.083 18.595 26 16.076 26c-.84 0-1.604-.152-2.367-.305l8.855-5.115z" clip-rule="evenodd"></path>
</svg>
